# xmcd
#
# Track frame offsets: 
#        150
#        11179
#        25953
#        36402
#        50203
#        64512
#        74319
#        99764
#        113344
#        131232
#        141546
#
# Disc length: 2164 seconds
#
# Revision: 0
# Processed by: cddbd v1.5.2PL0 Copyright (c) Steve Scherf et al.
# Submitted via: ExactAudioCopyFreeDBPlugin 1.0
#
DISCID=9f08720b
DTITLE=Octanes - Roots, Rock and Romance
DYEAR=2010
DGENRE=Country
TTITLE0=Can't Be Friends
TTITLE1=Movin' Up, Movin' Out
TTITLE2=Louisiana Radio
TTITLE3=213
TTITLE4=Don't Flip Your Lid
TTITLE5=New Hometown
TTITLE6=Where Were You?
TTITLE7=The Facts
TTITLE8=Used To Be Business
TTITLE9=Wrapped Up
TTITLE10=Secret Handshake
EXTD=
EXTT0=
EXTT1=
EXTT2=
EXTT3=
EXTT4=
EXTT5=
EXTT6=
EXTT7=
EXTT8=
EXTT9=
EXTT10=
PLAYORDER=
